<?xml version="1.0" standalone="no"?>
<!DOCTYPE svg PUBLIC "-//W3C//DTD SVG 20010904//EN"
 "http://www.w3.org/TR/2001/REC-SVG-20010904/DTD/svg10.dtd">
<svg version="1.0" xmlns="http://www.w3.org/2000/svg"
 width="1000.000000pt" height="1000.000000pt" viewBox="0 0 1000.000000 1000.000000"
 preserveAspectRatio="xMidYMid meet">
<metadata>
Created by potrace 1.11, written by Peter Selinger 2001-2013
</metadata>
<g transform="translate(0.000000,1000.000000) scale(0.100000,-0.100000)"
fill="#000000" stroke="none">
<path d="M5055 8310 c5 -7 -26 -10 -94 -9 -62 1 -106 -3 -114 -10 -8 -6 -18
-7 -23 -3 -4 4 -3 0 4 -9 15 -20 3 -33 -16 -16 -13 10 -14 9 -2 -9 10 -17 10
-26 -5 -54 -13 -25 -19 -30 -26 -19 -7 9 -8 5 -3 -13 5 -23 3 -28 -12 -28 -14
0 -16 -2 -6 -9 11 -6 10 -11 -3 -24 -8 -9 -15 -19 -14 -22 3 -13 -42 -105 -52
-105 -6 0 -7 -5 -3 -12 5 -8 1 -9 -12 -4 -15 6 -17 5 -6 -5 15 -16 15 -24 -1
-41 -6 -7 -17 -26 -23 -43 -6 -16 -16 -29 -23 -27 -7 1 -10 -2 -7 -7 9 -14
-15 -72 -27 -64 -5 3 -7 1 -3 -5 8 -13 -14 -63 -25 -56 -5 3 -6 -1 -3 -9 3 -8
-5 -25 -18 -37 -13 -13 -17 -20 -10 -16 6 4 12 3 12 -2 0 -10 -24 -33 -31 -29
-2 1 -2 -2 2 -6 3 -5 -5 -33 -19 -63 -18 -38 -32 -54 -46 -55 -17 -1 -18 -2
-4 -6 15 -4 16 -8 6 -26 -6 -12 -18 -28 -27 -35 -9 -8 -10 -11 -4 -7 13 6 -21
-74 -49 -117 -9 -13 -17 -33 -20 -43 -2 -11 -8 -20 -15 -20 -6 0 -15 -4 -20
-9 -5 -5 -3 -6 5 -2 7 4 12 1 12 -8 0 -9 -5 -16 -12 -16 -6 0 -9 -3 -5 -6 10
-11 -34 -84 -46 -77 -7 4 -6 -1 2 -10 9 -11 10 -17 2 -17 -6 0 -11 -7 -11 -15
0 -9 -7 -18 -15 -21 -8 -4 -13 -10 -10 -14 7 -11 -26 -80 -37 -80 -5 0 -7 -4
-3 -9 3 -5 1 -12 -5 -16 -6 -4 -8 -10 -5 -15 3 -5 -3 -18 -13 -28 -10 -10 -17
-23 -14 -30 3 -11 -5 -24 -43 -64 -11 -11 -14 -18 -7 -14 14 8 16 -3 3 -23 -5
-7 -13 -11 -19 -7 -6 3 -14 2 -17 -4 -4 -6 -3 -10 2 -9 22 4 22 -4 -2 -46 -13
-25 -25 -49 -25 -53 0 -4 -4 -7 -9 -7 -5 0 -13 -4 -18 -9 -5 -5 -3 -6 5 -2 6
4 12 4 12 0 0 -12 -54 -119 -63 -125 -5 -3 -8 -10 -8 -15 1 -5 -3 -9 -8 -9 -5
0 -13 -4 -18 -9 -4 -5 -3 -6 4 -2 8 4 11 -1 10 -14 -1 -11 -4 -20 -8 -20 -4 0
-10 -11 -13 -25 -4 -16 -11 -23 -18 -19 -7 4 -8 3 -4 -4 4 -6 -6 -35 -21 -64
-15 -29 -28 -55 -28 -58 -7 -24 -19 -39 -28 -33 -6 3 -7 1 -3 -6 9 -15 -94
-232 -107 -224 -5 3 -6 -3 -2 -17 5 -15 4 -20 -4 -16 -7 5 -9 1 -5 -8 3 -9 2
-16 -4 -16 -6 0 -13 -13 -17 -30 -4 -16 -10 -30 -15 -30 -5 0 -10 -10 -12 -22
-2 -13 -9 -22 -16 -20 -8 1 -11 -2 -7 -8 4 -6 -3 -31 -14 -55 -16 -34 -25 -43
-41 -40 -11 2 -18 0 -15 -6 4 -5 11 -7 16 -4 15 10 10 -12 -13 -60 -12 -25
-29 -45 -37 -46 -11 0 -12 -2 -3 -6 6 -2 9 -10 5 -16 -4 -7 -8 -14 -8 -17 -3
-16 -89 -186 -97 -188 -4 -2 -6 -8 -2 -13 3 -5 0 -9 -7 -9 -7 0 -9 -3 -6 -6 4
-4 -2 -23 -12 -43 -11 -20 -22 -44 -25 -54 -3 -10 -10 -16 -15 -12 -5 3 -13 0
-17 -6 -4 -8 -3 -9 4 -5 7 4 12 2 12 -3 0 -6 -5 -11 -11 -11 -5 0 -8 -4 -5 -9
8 -12 -39 -102 -49 -93 -5 4 -5 2 -2 -4 7 -12 -29 -95 -45 -105 -5 -3 -9 -10
-8 -15 2 -12 -42 -107 -53 -115 -5 -3 -7 -8 -5 -10 1 -2 -12 -34 -31 -72 -29
-59 -36 -66 -50 -55 -14 12 -15 11 -2 -5 12 -15 11 -23 -4 -57 -10 -22 -22
-37 -28 -33 -6 3 -7 1 -3 -5 4 -7 -4 -33 -17 -60 -14 -26 -28 -55 -31 -65 -3
-10 -10 -16 -15 -13 -5 3 -7 -4 -3 -16 4 -16 2 -19 -8 -13 -8 5 -11 4 -7 -2 4
-6 -21 -66 -55 -134 -34 -68 -62 -128 -63 -132 0 -4 -4 -11 -10 -15 -5 -4 -10
-11 -10 -17 -1 -16 -28 -69 -40 -77 -5 -4 -6 -8 -1 -8 5 0 2 -8 -7 -17 -8 -10
-16 -22 -16 -28 -2 -25 -13 -45 -22 -40 -5 3 -6 -1 -3 -9 3 -9 1 -16 -5 -16
-6 0 -10 -3 -10 -7 3 -21 -2 -33 -13 -27 -6 4 -8 3 -4 -4 6 -11 -23 -84 -36
-90 -5 -2 -8 -11 -8 -19 0 -9 -6 -13 -15 -10 -8 4 -17 2 -20 -4 -4 -5 -1 -8 7
-7 7 2 13 -4 13 -12 0 -8 -5 -14 -12 -13 -7 2 -10 -6 -8 -16 2 -10 -5 -28 -15
-39 -10 -11 -17 -22 -14 -25 3 -3 -4 -20 -15 -38 -11 -18 -18 -36 -15 -41 3
-4 0 -8 -5 -8 -6 0 -11 -6 -11 -14 0 -8 -6 -21 -13 -28 -8 -7 -18 -27 -24 -43
-6 -17 -15 -29 -21 -28 -5 1 -8 -7 -5 -17 3 -11 0 -20 -6 -20 -6 0 -10 -3 -10
-8 3 -18 -27 -72 -38 -68 -7 3 -10 -1 -7 -8 3 -7 -2 -21 -11 -29 -9 -9 -16
-19 -15 -22 1 -27 -3 -37 -22 -45 -13 -5 -17 -9 -9 -9 11 -1 11 -4 1 -16 -7
-8 -9 -15 -4 -15 5 0 4 -4 -1 -8 -6 -4 -26 -37 -45 -74 -19 -37 -38 -64 -42
-62 -4 3 -5 -2 -2 -10 3 -9 1 -16 -6 -16 -6 0 -9 -4 -5 -9 3 -5 1 -12 -4 -16
-6 -3 -20 -25 -32 -50 -12 -24 -26 -42 -30 -39 -5 3 -6 -2 -2 -12 5 -13 2 -15
-15 -10 -11 4 -23 2 -27 -3 -3 -7 0 -8 9 -5 10 4 16 1 16 -9 0 -18 -16 -31
-23 -20 -2 5 -2 2 0 -5 5 -20 -86 -152 -105 -152 -13 0 -14 -2 -3 -9 10 -7 9
-11 -8 -23 -11 -8 -18 -17 -15 -20 7 -8 -174 -190 -184 -184 -5 3 -15 -4 -22
-15 -8 -10 -20 -19 -28 -19 -7 0 -32 -11 -55 -24 -23 -14 -68 -32 -100 -40
-31 -8 -62 -18 -69 -22 -7 -5 -8 -2 -3 7 6 11 5 12 -6 1 -17 -16 -52 -16 -44
1 4 6 0 4 -9 -7 -12 -14 -25 -17 -65 -15 -34 3 -52 0 -55 -8 -3 -7 -1 -15 4
-18 5 -3 9 -37 8 -75 -1 -39 2 -73 5 -76 5 -5 1841 -9 2018 -5 27 1 27 1 24
76 -1 41 1 75 5 75 4 0 7 6 7 13 0 9 -12 13 -34 12 -19 0 -37 3 -40 8 -2 4
-10 4 -16 -1 -7 -5 -28 -8 -47 -7 -49 3 -171 16 -195 22 -11 2 -33 7 -50 9
-16 3 -31 10 -33 14 -2 5 -9 7 -17 4 -7 -3 -16 0 -20 5 -3 6 -10 9 -14 7 -12
-8 -116 51 -113 64 1 6 -2 9 -6 6 -16 -10 -55 32 -48 50 5 13 4 14 -7 6 -11
-10 -20 0 -43 46 -26 52 -29 66 -29 157 1 82 6 116 29 190 16 50 32 92 35 95
3 3 7 12 9 20 2 8 21 53 42 100 21 47 62 137 90 200 29 63 65 143 81 178 16
34 29 64 29 67 0 2 17 41 39 87 21 46 45 99 54 118 8 19 31 70 51 112 20 42
36 79 36 82 0 13 55 122 65 128 16 12 27 9 19 -4 -5 -7 -3 -8 7 -2 23 14 49
15 49 1 0 -9 2 -9 8 0 8 13 29 12 51 -1 10 -6 12 -5 7 2 -4 7 -1 12 8 12 8 0
18 -5 21 -10 4 -6 12 -7 18 -3 21 13 47 13 47 0 0 -8 4 -7 10 3 9 13 11 13 20
0 5 -8 10 -10 10 -4 0 13 113 13 122 -1 5 -6 8 -6 8 2 0 14 26 13 49 -1 10 -6
12 -5 7 2 -4 7 -1 12 8 12 8 0 18 -5 21 -10 4 -6 12 -7 18 -3 18 12 87 12 80
0 -4 -6 -1 -7 8 -1 19 12 99 12 99 -1 0 -7 3 -7 8 0 11 15 32 17 32 3 0 -9 3
-9 12 0 15 15 42 16 32 0 -5 -7 -3 -8 7 -2 22 14 80 15 72 1 -5 -8 -2 -8 8 0
12 9 18 10 27 1 8 -8 15 -8 26 1 10 8 16 9 21 1 3 -6 12 -7 18 -3 19 12 118
12 110 0 -4 -6 -1 -7 8 -1 20 12 160 13 152 1 -4 -6 -1 -7 8 -1 19 12 99 12
99 -1 0 -7 3 -7 8 0 11 15 32 17 32 3 0 -9 3 -9 12 0 15 15 42 16 32 0 -5 -7
-3 -8 7 -2 22 14 80 14 73 1 -5 -8 -3 -8 6 0 10 9 17 10 27 2 9 -8 17 -8 27 0
10 8 16 9 21 1 3 -6 12 -7 18 -3 19 12 118 12 110 0 -4 -6 -1 -7 8 -1 20 12
160 13 152 1 -4 -6 -1 -7 8 -1 19 12 99 12 99 -1 0 -7 3 -7 8 0 11 15 32 17
32 3 0 -9 3 -9 12 0 15 15 42 16 32 0 -5 -7 -3 -8 7 -2 22 14 80 14 73 1 -5
-8 -3 -8 6 0 10 9 17 10 27 2 9 -8 17 -8 27 0 10 8 16 9 21 1 3 -6 12 -7 18
-3 19 12 118 12 110 0 -4 -6 -1 -7 8 -1 21 13 160 13 152 0 -4 -6 0 -5 8 1 14
11 23 11 64 3 6 -1 12 -1 15 0 21 8 40 6 40 -3 0 -8 3 -8 8 -2 4 6 16 11 28
12 17 2 31 -20 84 -130 35 -72 63 -138 63 -144 0 -7 4 -13 9 -13 15 0 36 -64
25 -78 -7 -9 -6 -11 5 -7 9 4 19 -3 25 -17 128 -260 183 -380 177 -390 -4 -7
-3 -8 4 -4 12 7 36 -30 27 -43 -3 -5 -1 -11 4 -13 14 -5 113 -217 106 -228 -4
-6 -2 -10 3 -10 5 0 12 -8 15 -17 3 -10 19 -57 36 -106 43 -121 58 -193 55
-257 -3 -49 -25 -117 -47 -145 -21 -27 -57 -65 -57 -61 0 4 -9 -3 -21 -15 -11
-11 -36 -27 -55 -35 -89 -37 -340 -70 -374 -49 -9 5 -11 4 -6 -3 4 -7 3 -12
-3 -12 -5 0 -13 5 -16 10 -5 8 -11 8 -19 1 -9 -7 -17 -7 -26 2 -7 6 -10 7 -7
2 7 -13 -56 -13 -65 0 -5 6 -8 5 -8 -3 0 -10 -5 -10 -21 -2 -19 11 -20 10 -6
-12 10 -15 14 -47 13 -95 -2 -60 1 -73 13 -74 20 0 2568 0 2598 0 20 1 21 6
20 79 0 43 3 84 8 92 5 9 4 11 -3 6 -7 -4 -12 -3 -12 2 0 4 -24 8 -52 7 -29
-1 -76 4 -105 10 -29 7 -55 10 -58 7 -3 -3 -5 0 -5 6 0 6 -6 9 -13 6 -30 -11
-217 70 -217 94 0 15 -2 15 -10 2 -9 -14 -14 -7 -11 13 1 5 -3 6 -8 3 -5 -4
-21 4 -35 17 -29 27 -34 42 -10 33 9 -3 12 -2 9 5 -4 6 -13 8 -21 5 -8 -3 -22
3 -32 13 -35 37 -50 59 -45 65 4 3 1 6 -6 6 -7 0 -11 7 -8 14 4 11 1 13 -10 9
-11 -4 -14 -2 -11 8 3 8 10 13 15 12 5 -1 10 5 10 13 0 12 -3 12 -18 -2 -15
-14 -19 -13 -39 15 -12 17 -18 31 -14 31 4 0 -2 9 -14 20 -12 12 -22 25 -22
30 0 20 -3 25 -22 39 -13 9 -18 21 -15 36 2 16 0 22 -8 18 -14 -5 -78 114 -69
128 3 5 0 8 -8 7 -7 -2 -12 5 -12 14 1 10 -2 15 -7 12 -8 -4 -11 8 -8 32 0 3
-8 12 -18 20 -10 7 -13 14 -8 14 7 0 7 3 0 8 -13 9 -35 49 -35 63 0 6 -7 17
-15 26 -9 8 -19 28 -22 44 -3 16 -9 29 -14 29 -5 0 -9 9 -9 20 0 11 -4 20 -10
20 -5 0 -10 7 -10 16 0 9 5 12 12 8 7 -4 8 -3 4 5 -4 6 -12 9 -17 6 -9 -6 -34
42 -31 58 1 4 -3 7 -9 7 -5 0 -7 5 -4 10 3 6 0 10 -7 10 -9 0 -9 3 2 10 13 8
13 10 -2 10 -18 0 -33 33 -23 50 4 6 3 10 -2 9 -20 -3 -27 2 -13 11 13 8 13
10 -1 10 -15 0 -33 32 -30 53 1 4 -4 7 -9 7 -12 0 -14 26 -2 33 4 2 2 2 -5 1
-11 -3 -63 85 -63 107 0 6 -7 17 -15 26 -8 8 -13 19 -10 24 4 5 3 9 -2 9 -13
0 -35 58 -27 71 4 8 3 9 -4 5 -12 -7 -35 27 -25 38 3 3 0 6 -8 6 -11 0 -11 2
1 10 13 8 13 10 -1 10 -9 0 -21 12 -27 26 -10 20 -10 24 0 18 7 -4 2 3 -10 16
-15 14 -22 30 -19 41 3 12 1 17 -6 12 -7 -4 -8 0 -4 11 4 10 3 15 -3 11 -5 -3
-19 13 -30 36 -14 26 -17 39 -8 34 7 -3 6 -1 -3 7 -23 19 -41 57 -33 70 4 6 3
8 -3 5 -13 -8 -26 20 -16 35 3 7 1 8 -5 4 -11 -6 -16 6 -13 27 0 4 -4 7 -10 7
-6 0 -8 7 -5 16 3 8 2 13 -2 10 -12 -7 -44 63 -36 77 4 7 4 9 -1 5 -5 -5 -15
1 -22 12 -12 17 -12 24 -2 36 9 12 9 13 -2 9 -10 -4 -22 10 -37 41 -19 38 -20
49 -10 63 10 13 10 14 -2 3 -12 -10 -23 5 -67 90 -39 77 -49 105 -41 115 8 10
7 12 -3 8 -10 -4 -22 10 -37 41 -19 38 -21 49 -10 63 11 14 11 14 -2 4 -13
-10 -25 8 -79 114 -53 102 -62 127 -50 135 11 8 11 9 -2 5 -19 -6 -44 37 -33
55 4 6 3 8 -3 5 -13 -8 -38 37 -28 52 3 6 11 8 17 5 7 -4 8 -2 4 5 -6 9 -11 9
-21 1 -11 -9 -20 1 -44 53 -17 35 -31 70 -33 78 -2 8 -8 18 -14 24 -6 5 -17
26 -24 45 -8 19 -17 37 -20 40 -3 3 -30 54 -59 114 -43 88 -51 110 -40 118 11
8 10 9 -4 4 -13 -4 -20 2 -28 22 -6 15 -9 27 -7 28 2 0 -4 9 -12 19 -26 31
-90 167 -83 178 3 6 1 7 -5 3 -11 -6 -16 6 -13 27 0 4 -3 7 -9 7 -5 0 -7 8 -3
18 3 9 2 13 -2 9 -10 -9 -47 61 -39 74 3 5 0 9 -5 9 -11 0 -127 229 -123 243
1 4 -2 7 -7 7 -5 0 -15 15 -22 33 -7 17 -15 36 -17 41 -3 5 1 5 8 1 9 -5 11
-4 6 4 -4 6 -11 9 -16 6 -10 -6 -34 53 -30 75 1 8 -1 12 -5 8 -11 -10 -44 54
-37 71 3 9 1 12 -6 7 -13 -8 -26 29 -16 45 4 7 3 9 -3 6 -7 -4 -38 47 -77 124
-36 72 -66 133 -66 135 0 3 5 2 12 -2 7 -4 8 -3 4 5 -4 6 -11 9 -16 6 -11 -7
-23 32 -14 46 4 7 3 9 -4 5 -6 -4 -28 29 -55 81 -25 49 -52 102 -61 118 -9 17
-16 35 -16 41 0 6 -7 17 -16 25 -8 7 -13 21 -11 31 3 10 1 16 -4 12 -8 -5 -13
9 -10 29 0 4 -4 7 -9 7 -6 0 -10 6 -10 14 0 8 -5 16 -11 18 -5 2 -11 18 -13
35 -1 18 -6 36 -11 40 -4 4 -5 2 -1 -4 4 -7 2 -13 -3 -13 -6 0 -11 5 -11 12 0
6 -22 54 -49 107 -26 53 -46 102 -43 110 2 8 0 11 -6 7 -12 -7 -25 22 -15 36
3 6 2 8 -3 5 -6 -3 -27 26 -47 64 -20 39 -31 67 -24 64 6 -4 5 -1 -3 7 -9 7
-22 29 -30 48 -8 19 -17 37 -21 40 -4 3 -9 12 -11 20 -2 8 -8 20 -15 27 -6 7
-10 22 -8 33 2 11 0 18 -6 15 -5 -4 -9 1 -9 9 0 9 -4 16 -9 16 -5 0 -12 7 -15
16 -4 10 -2 13 7 9 6 -4 5 0 -3 7 -14 12 -35 52 -74 141 -9 20 -19 37 -22 37
-3 0 -2 -5 1 -10z m-302 -1432 c36 -73 95 -196 132 -273 37 -77 113 -232 167
-345 55 -113 123 -252 150 -310 27 -58 65 -135 84 -172 19 -38 32 -68 29 -68
-3 0 -1 -6 5 -12 23 -28 160 -323 155 -336 -2 -7 -1 -11 4 -8 5 3 17 -11 26
-32 21 -45 151 -313 211 -436 24 -49 41 -93 38 -97 -3 -5 -1 -9 4 -9 8 0 69
-117 108 -207 l14 -33 -1185 0 c-783 0 -1184 4 -1180 10 4 6 12 7 18 3 9 -5 9
-3 1 8 -9 11 -5 26 15 67 15 29 31 49 36 45 4 -4 5 -2 1 4 -4 8 18 64 50 130
32 65 58 120 59 123 12 35 33 69 40 63 4 -5 5 -3 1 4 -6 10 8 47 24 63 3 3 6
11 8 18 4 22 45 107 55 113 5 3 7 8 6 10 -2 2 11 33 28 69 17 36 40 85 51 110
11 25 53 113 92 195 172 358 200 417 200 424 0 5 7 14 15 21 8 6 14 15 13 18
-2 10 11 38 100 222 43 91 91 190 105 220 14 30 63 134 109 230 46 96 97 203
113 238 16 34 30 62 32 62 1 0 31 -60 66 -132z"/>
<path d="M3575 4580 c-3 -5 -1 -10 4 -10 6 0 11 5 11 10 0 6 -2 10 -4 10 -3 0
-8 -4 -11 -10z"/>
<path d="M3630 4579 c0 -5 5 -7 10 -4 6 3 10 8 10 11 0 2 -4 4 -10 4 -5 0 -10
-5 -10 -11z"/>
<path d="M4775 4581 c-3 -5 -2 -12 3 -15 5 -3 9 1 9 9 0 17 -3 19 -12 6z"/>
<path d="M3713 4565 c0 -8 4 -12 9 -9 5 3 6 10 3 15 -9 13 -12 11 -12 -6z"/>
<path d="M3833 4565 c0 -8 4 -12 9 -9 5 3 6 10 3 15 -9 13 -12 11 -12 -6z"/>
<path d="M3915 4570 c-3 -6 1 -7 9 -4 18 7 21 14 7 14 -6 0 -13 -4 -16 -10z"/>
<path d="M4075 4570 c-3 -6 1 -7 9 -4 18 7 21 14 7 14 -6 0 -13 -4 -16 -10z"/>
<path d="M4199 4568 c14 -19 32 -15 30 5 0 8 -2 8 -6 -1 -4 -10 -8 -10 -21 0
-15 12 -16 11 -3 -4z"/>
<path d="M4250 4577 c0 -2 6 -10 14 -16 11 -9 16 -9 22 1 4 7 4 10 -1 6 -4 -4
-14 -3 -22 3 -7 6 -13 9 -13 6z"/>
<path d="M4395 4569 c-4 -6 -5 -12 -2 -15 2 -3 7 2 10 11 7 17 1 20 -8 4z"/>
<path d="M4439 4568 c14 -19 32 -15 30 5 0 8 -2 8 -6 -1 -4 -10 -8 -10 -21 0
-15 12 -16 11 -3 -4z"/>
<path d="M4490 4577 c0 -2 6 -10 14 -16 11 -9 16 -9 22 1 4 7 4 10 -1 6 -4 -4
-14 -3 -22 3 -7 6 -13 9 -13 6z"/>
<path d="M4635 4569 c-4 -6 -5 -12 -2 -15 2 -3 7 2 10 11 7 17 1 20 -8 4z"/>
<path d="M4679 4568 c14 -19 32 -15 30 5 0 8 -2 8 -6 -1 -4 -10 -8 -10 -21 0
-15 12 -16 11 -3 -4z"/>
<path d="M4875 4570 c-3 -6 1 -7 9 -4 18 7 21 14 7 14 -6 0 -13 -4 -16 -10z"/>
<path d="M5035 4570 c-3 -6 1 -7 9 -4 18 7 21 14 7 14 -6 0 -13 -4 -16 -10z"/>
<path d="M5195 4570 c-3 -6 1 -7 9 -4 18 7 21 14 7 14 -6 0 -13 -4 -16 -10z"/>
<path d="M5355 4570 c-3 -6 1 -7 9 -4 18 7 21 14 7 14 -6 0 -13 -4 -16 -10z"/>
<path d="M5479 4568 c14 -19 32 -15 30 5 0 8 -2 8 -6 -1 -4 -10 -8 -10 -21 0
-15 12 -16 11 -3 -4z"/>
<path d="M5530 4577 c0 -2 6 -10 14 -16 11 -9 16 -9 22 1 4 7 4 10 -1 6 -4 -4
-14 -3 -22 3 -7 6 -13 9 -13 6z"/>
<path d="M5675 4569 c-4 -6 -5 -12 -2 -15 2 -3 7 2 10 11 7 17 1 20 -8 4z"/>
<path d="M5719 4568 c14 -19 32 -15 30 5 0 8 -2 8 -6 -1 -4 -10 -8 -10 -21 0
-15 12 -16 11 -3 -4z"/>
<path d="M5087 8299 c7 -7 15 -10 18 -7 3 3 -2 9 -12 12 -14 6 -15 5 -6 -5z"/>
<path d="M5175 8149 c-4 -6 -5 -12 -2 -15 2 -3 7 2 10 11 7 17 1 20 -8 4z"/>
<path d="M4696 8058 c3 -4 11 -5 19 -1 21 7 19 12 -4 10 -11 0 -18 -5 -15 -9z"/>
<path d="M5250 7959 c0 -5 5 -7 10 -4 6 3 10 8 10 11 0 2 -4 4 -10 4 -5 0 -10
-5 -10 -11z"/>
<path d="M5315 7820 c3 -5 8 -10 11 -10 2 0 4 5 4 10 0 6 -5 10 -11 10 -5 0
-7 -4 -4 -10z"/>
<path d="M4495 7660 c3 -5 8 -10 11 -10 2 0 4 5 4 10 0 6 -5 10 -11 10 -5 0
-7 -4 -4 -10z"/>
<path d="M4456 7558 c3 -4 11 -5 19 -1 21 7 19 12 -4 10 -11 0 -18 -5 -15 -9z"/>
<path d="M4435 7529 c-4 -6 -5 -12 -2 -15 2 -3 7 2 10 11 7 17 1 20 -8 4z"/>
<path d="M5535 7429 c-4 -6 -5 -12 -2 -15 2 -3 7 2 10 11 7 17 1 20 -8 4z"/>
<path d="M5665 7140 c-3 -6 1 -7 9 -4 18 7 21 14 7 14 -6 0 -13 -4 -16 -10z"/>
<path d="M4036 6698 c3 -5 10 -6 15 -3 13 9 11 12 -6 12 -8 0 -12 -4 -9 -9z"/>
<path d="M9933 6449 c-2 -23 3 -25 10 -4 4 8 3 16 -1 19 -4 3 -9 -4 -9 -15z"/>
<path d="M9974 6441 c5 -7 -31 -23 -49 -21 -3 0 -13 -7 -22 -16 -11 -11 -18
-13 -21 -5 -2 7 -9 6 -19 -4 -8 -8 -19 -13 -24 -10 -5 4 -9 2 -9 -3 0 -16 -48
-33 -54 -19 -2 7 -5 4 -5 -6 -1 -10 -5 -16 -10 -13 -5 4 -11 3 -13 -1 -6 -15
-126 -66 -137 -59 -6 4 -9 2 -6 -6 6 -14 -81 -62 -96 -52 -5 3 -6 -3 -2 -13 3
-10 3 -15 -2 -11 -4 4 -22 -4 -40 -17 -34 -27 -51 -32 -39 -13 5 7 3 8 -5 4
-7 -5 -10 -10 -7 -13 3 -3 0 -11 -7 -18 -9 -9 -15 -7 -30 9 l-18 21 13 -23
c12 -20 10 -25 -12 -42 -14 -11 -29 -20 -33 -20 -4 0 -19 -12 -32 -26 -14 -15
-25 -25 -25 -22 0 2 -30 -24 -67 -58 -37 -35 -70 -61 -75 -58 -4 3 -5 -1 -2
-9 6 -18 -21 -41 -37 -31 -8 4 -9 3 -5 -5 4 -6 -1 -21 -13 -34 -11 -12 -32
-37 -47 -55 -19 -23 -30 -30 -38 -22 -9 7 -13 5 -13 -5 0 -8 4 -12 9 -9 4 3 8
0 8 -5 0 -6 -5 -11 -11 -11 -5 0 -8 -4 -5 -9 3 -5 -1 -14 -8 -20 -10 -8 -16
-9 -21 -1 -3 5 -11 10 -18 10 -6 0 -3 -6 8 -13 17 -13 17 -15 -1 -48 -10 -19
-25 -38 -31 -42 -7 -4 -13 -16 -13 -27 0 -10 -7 -25 -15 -33 -7 -8 -17 -26
-21 -41 -3 -14 -10 -29 -15 -32 -5 -3 -6 -10 -3 -16 5 -7 2 -9 -8 -6 -11 5
-14 0 -10 -19 4 -20 2 -24 -8 -18 -8 5 -11 4 -7 -2 6 -9 -1 -43 -20 -93 -20
-53 -55 -207 -56 -247 0 -7 -5 -13 -10 -13 -5 0 -4 -6 2 -13 6 -8 8 -17 5 -20
-18 -17 -26 -398 -10 -409 7 -5 6 -8 -2 -8 -7 0 -10 -5 -6 -11 3 -6 8 -32 9
-57 2 -26 4 -47 5 -47 1 0 3 -10 6 -22 2 -14 -1 -23 -9 -23 -9 0 -9 -2 1 -8 6
-5 13 -28 15 -53 1 -24 5 -46 9 -49 3 -3 9 -25 11 -50 3 -25 8 -56 11 -70 4
-14 8 -38 11 -55 2 -16 13 -64 25 -105 21 -80 32 -127 33 -147 0 -7 3 -13 7
-13 6 0 34 -114 30 -126 -1 -4 3 -10 8 -13 6 -4 12 -18 14 -31 2 -14 7 -31 11
-37 5 -7 5 -18 2 -23 -3 -6 -1 -10 5 -10 7 0 10 -7 6 -15 -3 -8 -1 -15 4 -15
6 0 10 -10 10 -23 0 -12 7 -32 15 -43 8 -12 12 -24 8 -27 -3 -4 -1 -12 4 -19
6 -7 13 -25 17 -40 3 -15 11 -40 17 -55 6 -15 11 -30 11 -33 0 -3 6 -21 13
-40 8 -19 28 -75 45 -125 17 -49 34 -97 37 -105 8 -21 14 -43 15 -57 1 -7 5
-13 8 -13 4 0 12 -17 18 -37 5 -21 22 -69 36 -108 14 -38 27 -72 27 -75 5 -20
12 -37 19 -51 5 -10 4 -21 -3 -29 -9 -10 -9 -11 0 -6 10 5 32 -39 39 -82 1 -7
14 -47 28 -90 40 -117 84 -274 100 -352 3 -14 8 -36 11 -50 7 -31 18 -109 19
-132 0 -10 3 -18 6 -18 10 0 14 -254 5 -305 -10 -58 -38 -135 -48 -135 -6 0
-8 -3 -4 -6 3 -4 0 -13 -8 -20 -7 -8 -15 -18 -17 -24 -2 -6 -10 -12 -18 -13
-25 -4 -39 -17 -34 -30 5 -13 -54 -64 -68 -59 -5 1 -8 -3 -8 -9 0 -6 -7 -8
-16 -5 -8 3 -13 2 -10 -2 3 -5 -8 -16 -25 -26 -16 -9 -29 -14 -29 -10 0 4 -9
-1 -19 -10 -11 -10 -25 -15 -30 -11 -6 3 -11 1 -11 -6 0 -8 -4 -8 -15 1 -13
11 -14 10 -9 -4 4 -9 3 -16 -2 -15 -5 1 -22 -3 -37 -9 -16 -7 -33 -10 -38 -6
-5 3 -9 0 -9 -5 0 -6 -11 -11 -24 -11 -14 0 -27 -4 -31 -9 -3 -6 -13 -10 -23
-10 -39 0 -67 -7 -74 -16 -5 -7 -15 -6 -28 3 -14 8 -19 9 -18 1 2 -6 -3 -14
-11 -17 -10 -3 -11 0 -5 9 6 11 4 11 -10 -1 -10 -8 -28 -15 -40 -16 -11 -1
-37 -3 -56 -5 -19 -1 -43 -6 -52 -11 -11 -5 -18 -5 -18 1 0 7 -10 7 -28 0 -15
-5 -61 -11 -102 -12 -41 -2 -81 -6 -87 -10 -7 -5 -13 -4 -13 1 0 4 -22 6 -50
2 -29 -4 -50 -2 -50 3 0 6 -5 6 -12 1 -19 -14 -53 -10 -50 5 1 7 -2 10 -8 6
-6 -3 -8 -11 -5 -16 7 -11 -45 -6 -64 6 -9 5 -12 4 -8 -1 7 -12 -148 -13 -159
-2 -3 4 -14 3 -24 -2 -10 -5 -19 -8 -21 -5 -2 2 -76 6 -164 10 -108 4 -162 10
-167 18 -6 9 -8 9 -8 0 0 -11 -43 -12 -70 -3 -3 1 -16 1 -30 0 -22 -2 -23 0
-10 17 14 17 14 17 -5 2 -14 -11 -34 -15 -65 -13 -25 2 -70 6 -100 8 -30 3
-55 5 -55 6 0 2 -135 12 -177 14 -16 0 -28 4 -28 7 0 3 -15 5 -32 4 -18 0 -58
3 -88 7 -30 4 -77 10 -105 13 -68 7 -78 9 -94 19 -9 6 -12 5 -8 -1 3 -5 -4 -9
-16 -7 -12 1 -22 3 -22 5 0 2 -43 6 -107 12 -16 1 -28 6 -28 11 0 5 -6 3 -13
-3 -8 -6 -16 -9 -19 -6 -2 2 -22 7 -44 11 -21 3 -45 11 -53 17 -11 9 -13 9 -8
0 5 -8 0 -11 -13 -10 -11 1 -20 5 -20 9 0 5 -11 6 -25 2 -22 -5 -24 -4 -19 22
3 16 2 26 -1 22 -6 -5 -8 -14 -14 -48 -1 -3 -6 2 -11 10 -6 9 -10 10 -10 3 0
-9 -8 -9 -29 -2 -15 5 -32 9 -37 8 -5 -2 -27 0 -49 4 -22 4 -55 8 -72 9 -18 1
-33 5 -33 8 0 3 -19 6 -42 7 -51 2 -68 6 -87 17 -10 7 -12 6 -6 -4 5 -9 4 -11
-3 -6 -7 4 -31 9 -54 12 -24 2 -59 7 -78 11 -19 3 -41 5 -49 4 -8 -1 -10 2 -6
9 6 9 2 9 -14 1 -13 -7 -21 -8 -21 -2 0 6 -6 8 -14 5 -8 -3 -17 -1 -21 5 -3 6
-12 11 -18 11 -7 0 -6 -4 3 -11 12 -8 10 -9 -7 -4 -37 10 -119 22 -137 19 -12
-2 -16 2 -12 13 5 12 3 13 -6 5 -7 -6 -31 -8 -53 -5 -48 6 -80 11 -80 13 0 1
-20 3 -45 6 -76 7 -115 12 -115 14 0 5 -120 22 -158 21 -9 0 -17 3 -17 7 0 4
-21 8 -48 9 -77 3 -147 14 -153 25 -4 7 -9 6 -13 -1 -4 -6 -13 -8 -19 -4 -7 4
-30 9 -52 10 -21 2 -43 9 -47 16 -6 9 -8 9 -8 -1 0 -7 -4 -11 -9 -8 -5 3 -35
8 -67 12 -32 3 -61 7 -65 9 -4 3 -34 7 -68 10 -79 7 -85 8 -93 20 -5 6 -8 5
-8 -3 0 -8 -5 -10 -12 -5 -7 4 -26 9 -43 10 -16 1 -46 4 -65 7 -19 3 -55 8
-80 11 -25 4 -60 7 -77 7 -18 1 -33 5 -33 9 0 4 -9 5 -20 2 -16 -4 -19 -2 -14
13 5 16 4 16 -5 3 -11 -17 -81 -14 -81 3 0 6 -6 5 -15 -2 -8 -7 -15 -9 -15 -4
0 5 -19 9 -43 10 -59 2 -111 9 -125 18 -7 4 -12 3 -12 -3 0 -6 -6 -8 -14 -5
-8 3 -12 13 -10 22 5 15 4 15 -6 0 -6 -9 -16 -15 -23 -13 -16 5 -171 22 -272
29 -34 3 -49 8 -47 17 2 9 0 10 -11 1 -8 -7 -16 -9 -19 -6 -5 4 -46 8 -185 16
-24 2 -43 5 -43 8 0 3 -26 6 -58 7 -31 2 -77 4 -102 7 -25 2 -60 4 -78 5 -24
1 -31 5 -26 14 6 9 4 9 -7 1 -14 -11 -48 -10 -174 1 -33 3 -79 6 -102 7 -28 1
-40 5 -36 12 4 7 1 6 -8 -1 -16 -13 -36 -12 -58 1 -10 7 -12 5 -6 -3 6 -10 3
-11 -13 -2 -27 14 -35 14 -26 -1 5 -7 3 -8 -7 -2 -8 4 -32 9 -54 9 -23 1 -46
4 -52 8 -6 4 -14 3 -18 -3 -4 -6 -10 -8 -15 -5 -4 3 -40 6 -79 7 -46 1 -68 5
-64 12 5 8 2 7 -8 0 -8 -6 -43 -9 -79 -8 -126 6 -209 6 -219 -1 -6 -3 -11 -1
-11 5 0 6 -4 8 -10 5 -5 -3 -112 -8 -237 -11 -207 -4 -328 -9 -328 -13 0 -1
-43 -4 -95 -7 -157 -10 -185 -12 -190 -14 -3 -1 -8 -2 -11 -2 -4 1 -21 -3 -38
-8 -22 -6 -31 -5 -31 3 0 9 -2 9 -8 1 -4 -6 -15 -10 -24 -8 -10 1 -18 -1 -18
-4 0 -4 -15 -8 -33 -8 -33 -2 -98 -10 -152 -20 -16 -4 -39 -7 -50 -9 -11 -1
-20 -3 -20 -5 0 -1 -14 -3 -30 -5 -17 -2 -51 -9 -75 -16 -25 -7 -54 -13 -66
-14 -11 -1 -27 -5 -34 -10 -8 -5 -11 -4 -6 3 3 6 -7 4 -24 -5 -17 -8 -38 -12
-46 -9 -8 3 -12 2 -9 -4 3 -6 3 -10 -2 -11 -33 -3 -58 -10 -131 -33 -46 -15
-92 -28 -102 -29 -18 -1 -19 -13 -17 -256 2 -262 5 -281 41 -246 9 9 16 13 16
9 0 -3 6 -2 13 4 7 6 25 13 41 16 15 3 34 10 42 17 8 6 14 8 14 4 0 -4 7 -2
15 5 8 7 15 9 15 5 0 -4 6 -3 13 3 7 6 25 13 40 16 15 2 30 7 35 10 5 3 24 8
42 11 19 3 40 11 47 17 10 8 13 7 13 -3 0 -9 3 -10 8 -3 4 6 32 17 62 24 30 7
59 15 65 18 5 3 21 7 35 8 14 2 36 5 50 8 27 5 81 15 117 21 13 2 27 6 33 10
5 3 10 1 10 -6 0 -8 4 -8 15 1 8 7 22 10 30 6 8 -3 15 -1 15 3 0 5 8 8 17 6
10 -1 28 2 41 6 15 6 22 5 22 -4 0 -8 3 -8 8 -1 4 5 22 10 40 9 17 0 32 3 32
8 0 4 4 5 10 2 5 -3 18 -2 28 4 11 6 24 6 34 0 11 -6 19 -5 23 1 5 8 11 7 21
-1 9 -7 14 -7 14 -1 0 5 20 9 45 9 25 -1 45 2 45 7 0 5 8 2 17 -5 9 -8 14 -9
11 -4 -4 7 16 11 55 12 34 0 79 3 100 5 23 3 37 1 37 -6 0 -6 5 -4 10 4 9 13
11 13 20 0 5 -8 10 -10 10 -4 0 7 36 10 106 10 58 -1 108 3 111 7 3 4 11 3 18
-3 8 -7 15 -7 19 -1 4 6 18 6 36 1 18 -5 32 -5 35 1 4 5 14 6 23 1 9 -4 48 -7
85 -6 37 0 70 -3 73 -8 3 -5 12 -3 21 3 12 10 16 10 24 -2 6 -10 9 -10 9 -2 0
11 26 12 50 3 3 -2 10 -1 15 0 38 8 45 8 45 -3 0 -8 3 -8 11 0 6 6 22 8 38 4
14 -4 61 -7 103 -6 43 0 78 -4 78 -9 0 -5 6 -3 14 3 11 9 15 9 19 -1 4 -9 6
-9 6 -1 1 8 10 9 29 5 15 -4 36 -7 47 -7 11 0 23 -4 27 -10 5 -6 8 -5 8 3 0 8
5 10 12 6 7 -4 30 -8 53 -8 22 -1 45 -4 52 -9 6 -4 14 -3 17 2 4 5 19 6 34 3
15 -4 43 -7 62 -7 19 0 38 -4 42 -10 5 -6 8 -5 8 4 0 11 3 11 17 0 9 -8 19
-12 22 -11 32 19 40 21 47 10 5 -7 3 -8 -6 -3 -9 5 -11 4 -6 -4 6 -9 11 -9 22
0 8 6 14 8 14 3 0 -5 23 -8 50 -7 38 2 49 -1 43 -10 -4 -8 -1 -7 10 2 10 7 17
9 17 3 0 -11 18 -11 37 1 6 4 15 2 18 -4 4 -5 13 -8 20 -5 8 3 16 0 19 -7 2
-7 5 -8 5 -1 1 6 14 9 31 6 19 -3 27 -8 23 -16 -4 -6 0 -5 9 2 13 10 17 10 21
0 4 -11 6 -10 6 0 1 7 5 10 11 7 5 -3 40 -8 77 -11 37 -3 71 -11 75 -17 5 -8
8 -8 8 -1 0 14 30 14 30 0 0 -6 5 -4 10 4 5 8 10 10 10 4 0 -6 10 -10 22 -10
13 1 29 -2 35 -7 9 -6 13 -5 13 2 0 8 6 9 18 3 9 -5 27 -8 39 -7 13 1 23 -2
23 -7 0 -5 9 -4 20 2 11 6 20 7 20 2 0 -4 17 -9 37 -10 50 -4 66 -6 78 -14 6
-4 17 -3 25 2 8 5 22 4 32 -1 10 -6 23 -7 28 -4 5 3 11 2 14 -3 3 -5 19 -7 35
-6 17 1 31 -2 31 -7 0 -6 9 -5 20 1 11 6 20 7 20 2 0 -7 34 -12 108 -15 6 0
12 -3 12 -7 0 -3 15 -6 33 -7 78 -3 107 -7 107 -15 0 -5 9 -4 20 2 11 6 20 7
20 2 0 -4 10 -9 23 -9 53 -3 108 -10 113 -16 3 -3 12 -3 19 -1 7 3 16 1 19 -5
4 -6 13 -8 21 -4 9 3 22 0 29 -6 10 -8 16 -9 21 -1 4 6 12 7 24 0 12 -6 22 -5
31 3 9 8 11 8 7 1 -9 -15 18 -25 31 -12 6 6 12 6 16 -1 4 -5 14 -7 23 -4 12 5
14 3 8 -8 -7 -11 -6 -12 7 -2 8 7 18 10 22 6 4 -4 24 -9 44 -10 20 -2 49 -4
65 -6 15 -1 27 -4 27 -7 0 -3 23 -6 52 -8 28 -1 56 -6 63 -12 7 -6 15 -6 23 2
8 8 12 9 12 1 0 -6 8 -10 18 -9 9 2 20 -2 24 -8 6 -8 8 -8 8 1 0 8 9 9 29 3
16 -4 32 -6 35 -2 3 3 6 -1 6 -9 0 -11 2 -11 9 -1 6 11 11 10 25 -3 9 -9 16
-12 16 -7 0 4 13 7 30 4 19 -3 27 -8 23 -16 -5 -8 -3 -8 8 0 15 12 49 15 49 5
0 -6 38 -10 115 -14 22 -1 42 -5 45 -9 3 -3 25 -7 50 -9 25 -2 48 -8 52 -14 5
-6 8 -5 8 3 0 8 5 10 13 5 15 -9 19 -10 58 -12 20 -1 28 -5 23 -13 -5 -7 -3
-8 7 -3 16 11 49 14 49 6 0 -3 19 -7 41 -8 23 -2 49 -8 57 -15 12 -10 16 -10
19 -1 3 9 10 10 24 3 10 -6 19 -8 19 -4 0 3 6 2 13 -2 6 -5 38 -9 69 -9 32 0
58 -3 58 -7 0 -4 14 -6 30 -4 17 2 30 0 30 -4 0 -4 11 -6 25 -5 14 2 25 0 25
-3 0 -4 12 -7 28 -8 85 -4 111 -8 105 -18 -4 -6 -1 -6 8 1 8 7 20 8 28 4 7 -5
23 -7 37 -5 13 1 26 -2 29 -6 3 -5 12 -7 20 -3 9 3 23 -1 32 -8 12 -10 15 -10
9 -1 -4 6 -3 12 3 12 5 0 12 -4 15 -9 3 -4 17 -6 31 -3 14 2 25 0 25 -5 0 -5
18 -8 40 -6 26 1 38 -2 34 -9 -4 -6 1 -6 14 1 12 6 23 7 26 3 3 -5 19 -8 36
-7 17 1 33 -2 37 -8 3 -5 9 -3 14 4 6 10 9 10 9 2 0 -7 7 -10 17 -6 12 5 14 3
8 -8 -7 -12 -6 -12 7 -1 13 10 17 10 21 0 4 -11 6 -10 6 0 1 7 6 10 11 7 6 -4
34 -8 63 -11 29 -2 63 -7 77 -10 14 -4 57 -8 95 -11 97 -6 95 -5 95 -17 0 -7
3 -7 8 -1 9 13 32 18 32 7 0 -4 25 -7 55 -7 30 0 55 -2 55 -5 0 -3 19 -5 43
-5 23 1 52 -3 65 -7 16 -6 21 -5 16 4 -5 7 -3 8 5 4 14 -9 65 -14 174 -18 46
-1 77 -6 77 -12 0 -6 5 -4 10 4 9 13 10 13 10 0 0 -13 1 -13 10 0 5 8 10 10
10 4 0 -6 25 -11 63 -11 34 -1 67 -2 72 -3 6 -1 47 -2 93 -2 56 1 80 -3 76
-10 -5 -7 -2 -8 7 -2 18 11 100 14 93 3 -3 -5 0 -9 5 -9 6 0 11 4 11 8 0 12
104 9 112 -3 5 -6 8 -6 8 1 0 7 31 11 90 11 50 0 93 2 96 6 3 3 19 1 35 -3 16
-5 27 -5 25 -1 -3 4 14 7 37 6 23 -1 50 3 61 8 14 7 17 6 10 -5 -6 -10 -5 -11
7 -1 12 10 18 10 27 1 9 -9 12 -9 12 0 0 7 5 12 11 12 5 0 7 -6 3 -12 -6 -9
-3 -9 9 1 10 7 31 12 51 9 20 -2 32 0 29 6 -3 5 5 7 21 4 15 -3 26 -1 26 6 0
6 5 4 10 -4 5 -8 10 -10 10 -3 0 6 13 10 30 9 17 -1 30 1 30 5 0 4 8 6 18 4 9
-1 21 0 27 3 5 3 25 7 44 9 19 2 41 9 48 15 8 7 13 7 13 0 0 -6 17 -4 42 5 22
8 47 12 54 9 7 -3 16 -1 20 5 3 6 13 8 21 5 8 -3 11 -1 8 4 -6 10 7 14 33 11
6 -1 12 2 12 6 0 5 9 10 20 11 11 1 29 3 39 4 11 1 17 6 15 10 -5 8 0 10 34
11 9 1 19 4 22 7 8 9 64 34 73 32 4 -1 7 3 7 9 0 5 4 8 9 4 5 -3 16 2 25 10 8
9 17 15 18 13 12 -9 190 114 245 169 17 17 34 29 37 26 3 -4 6 -2 6 4 0 5 10
21 23 35 42 47 77 92 77 101 0 4 5 5 12 1 6 -4 8 -3 4 4 -3 6 1 17 9 25 8 9
15 23 15 31 0 9 5 16 12 16 6 0 8 3 5 7 -4 3 -3 11 2 17 5 6 14 29 20 51 7 22
15 47 18 55 9 21 8 20 17 80 5 30 12 60 16 65 9 11 5 371 -4 425 -4 19 -8 49
-11 65 -2 17 -5 32 -6 35 -1 3 -3 10 -4 15 -5 37 -19 112 -21 120 -3 10 -9 34
-20 77 -3 13 -7 33 -10 45 -2 12 -9 34 -14 49 -6 15 -8 29 -5 32 2 3 1 10 -3
16 -5 6 -14 31 -21 56 -7 25 -17 53 -23 64 -7 14 -6 16 4 10 8 -4 6 1 -3 12
-9 10 -14 25 -12 32 3 6 -1 12 -8 12 -7 0 -10 3 -7 6 4 3 -5 38 -19 77 -14 40
-26 77 -27 84 -1 7 -5 16 -9 19 -12 12 -8 26 6 19 6 -4 4 0 -6 8 -10 9 -18 18
-18 21 1 7 -6 26 -24 76 -7 19 -11 43 -10 53 2 9 -1 15 -6 11 -8 -4 -11 9 -8
32 0 4 -5 10 -12 15 -10 6 -10 11 1 23 11 14 10 16 -5 9 -14 -5 -17 -3 -12 10
3 9 2 17 -4 17 -6 0 -8 4 -5 9 3 4 -1 17 -8 27 -11 15 -12 22 -3 33 8 10 8 13
1 8 -11 -7 -34 32 -34 59 0 8 -6 25 -14 37 -8 12 -14 34 -12 49 2 15 0 25 -4
23 -11 -7 -22 24 -13 37 3 7 1 8 -5 4 -10 -6 -15 11 -11 40 0 4 -5 10 -11 14
-7 4 -12 19 -12 34 0 14 -4 26 -9 26 -5 0 -9 9 -9 19 0 11 -4 23 -10 26 -5 3
-10 17 -10 30 0 13 -5 27 -10 30 -8 5 -7 11 1 21 8 9 8 14 2 12 -6 -2 -11 -1
-11 2 0 3 -7 22 -15 43 -9 20 -13 37 -9 37 3 0 1 5 -6 12 -7 7 -12 22 -12 34
0 13 -4 26 -10 29 -5 3 -9 16 -9 28 0 12 -9 48 -20 81 -11 32 -18 62 -15 67 3
5 1 9 -5 9 -5 0 -8 8 -6 18 1 9 -1 22 -6 28 -5 6 -10 26 -11 45 -2 19 -6 36
-10 39 -3 3 -9 21 -11 40 -3 19 -6 35 -7 35 -2 0 -4 10 -19 100 -31 179 -33
201 -35 375 -1 153 6 238 20 261 5 8 3 9 -5 4 -10 -6 -10 -3 0 16 7 13 13 35
15 49 1 14 3 25 4 25 1 0 4 10 13 48 6 24 60 162 66 167 3 3 13 19 21 35 15
31 51 86 61 95 3 3 14 20 24 38 11 17 26 32 34 32 8 0 12 3 8 6 -14 14 202
203 225 196 5 -1 7 2 3 8 -3 5 2 13 12 17 10 3 30 14 44 24 14 10 30 15 34 11
5 -4 5 -2 2 5 -4 6 4 15 21 22 15 6 46 21 69 35 22 14 44 22 47 19 3 -4 6 -1
6 6 0 7 5 9 10 6 6 -3 12 0 15 7 3 8 15 15 27 15 12 1 25 8 29 15 5 7 9 124 9
259 0 214 -2 248 -16 253 -8 3 -13 2 -10 -3z m-654 -4931 c0 -5 -5 -10 -11
-10 -5 0 -7 5 -4 10 3 6 8 10 11 10 2 0 4 -4 4 -10z"/>
<path d="M3874 6366 c1 -8 5 -18 8 -22 4 -3 5 1 4 10 -1 8 -5 18 -8 22 -4 3
-5 -1 -4 -10z"/>
<path d="M9711 6367 c-8 -10 -7 -14 2 -14 8 0 14 6 14 14 0 7 -1 13 -2 13 -2
0 -8 -6 -14 -13z"/>
<path d="M9680 6340 c8 -5 20 -10 25 -10 6 0 3 5 -5 10 -8 5 -19 10 -25 10 -5
0 -3 -5 5 -10z"/>
<path d="M9551 6287 c2 -2 11 -8 20 -15 12 -9 16 -9 16 1 0 7 -9 14 -20 14
-11 1 -18 1 -16 0z"/>
<path d="M9515 6251 c-3 -5 -2 -12 3 -15 5 -3 9 1 9 9 0 17 -3 19 -12 6z"/>
<path d="M9440 6211 c0 -6 4 -13 10 -16 6 -3 7 1 4 9 -7 18 -14 21 -14 7z"/>
<path d="M9406 6202 c-3 -5 1 -9 9 -9 8 0 12 4 9 9 -3 4 -7 8 -9 8 -2 0 -6 -4
-9 -8z"/>
<path d="M6167 6139 c7 -7 15 -10 18 -7 3 3 -2 9 -12 12 -14 6 -15 5 -6 -5z"/>
<path d="M9333 6125 c0 -7 8 -10 19 -7 10 2 18 6 18 7 0 1 -8 5 -18 7 -11 3
-19 0 -19 -7z"/>
<path d="M9235 6060 c-3 -5 -1 -10 4 -10 6 0 11 5 11 10 0 6 -2 10 -4 10 -3 0
-8 -4 -11 -10z"/>
<path d="M9229 6023 c-13 -16 -12 -17 4 -4 9 7 17 15 17 17 0 8 -8 3 -21 -13z"/>
<path d="M6227 5999 c7 -7 15 -10 18 -7 3 3 -2 9 -12 12 -14 6 -15 5 -6 -5z"/>
<path d="M9170 5998 c0 -11 12 -10 30 2 12 7 10 9 -8 7 -12 0 -22 -5 -22 -9z"/>
<path d="M9146 5965 c-9 -26 -7 -32 5 -12 6 10 9 21 6 23 -2 3 -7 -2 -11 -11z"/>
<path d="M6287 5899 c7 -7 15 -10 18 -7 3 3 -2 9 -12 12 -14 6 -15 5 -6 -5z"/>
<path d="M9080 5905 c0 -7 30 -13 34 -7 3 4 -4 9 -15 9 -10 1 -19 0 -19 -2z"/>
<path d="M3636 5882 c-3 -5 1 -9 9 -9 8 0 12 4 9 9 -3 4 -7 8 -9 8 -2 0 -6 -4
-9 -8z"/>
<path d="M9039 5868 c-5 -19 -8 -50 -4 -46 7 7 15 48 9 48 -2 0 -4 -1 -5 -2z"/>
<path d="M6327 5819 c7 -7 15 -10 18 -7 3 3 -2 9 -12 12 -14 6 -15 5 -6 -5z"/>
<path d="M8984 5798 c-3 -4 5 -5 17 -3 30 6 36 14 9 12 -12 -1 -24 -5 -26 -9z"/>
<path d="M6350 5766 c0 -2 7 -7 16 -10 8 -3 12 -2 9 4 -6 10 -25 14 -25 6z"/>
<path d="M6390 5670 c0 -5 5 -10 11 -10 5 0 7 5 4 10 -3 6 -8 10 -11 10 -2 0
-4 -4 -4 -10z"/>
<path d="M8871 5627 c-13 -21 -12 -21 5 -5 10 10 16 20 13 22 -3 3 -11 -5 -18
-17z"/>
<path d="M8820 5566 c0 -2 8 -10 18 -17 15 -13 16 -12 3 4 -13 16 -21 21 -21
13z"/>
<path d="M3456 5498 c3 -5 10 -6 15 -3 13 9 11 12 -6 12 -8 0 -12 -4 -9 -9z"/>
<path d="M3435 5471 c-3 -5 -2 -12 3 -15 5 -3 9 1 9 9 0 17 -3 19 -12 6z"/>
<path d="M6527 5419 c7 -7 15 -10 18 -7 3 3 -2 9 -12 12 -14 6 -15 5 -6 -5z"/>
<path d="M6553 5364 c-3 -8 -2 -19 3 -24 5 -5 9 1 9 16 0 28 -3 30 -12 8z"/>
<path d="M3236 5073 c-6 -14 -5 -15 5 -6 7 7 10 15 7 18 -3 3 -9 -2 -12 -12z"/>
<path d="M3194 4969 c-3 -6 -2 -15 3 -20 5 -5 9 -1 9 11 0 23 -2 24 -12 9z"/>
<path d="M6793 4925 c0 -8 4 -12 9 -9 5 3 6 10 3 15 -9 13 -12 11 -12 -6z"/>
<path d="M3161 4876 c-9 -11 -9 -16 1 -22 7 -4 10 -4 6 1 -4 4 -3 14 3 22 6 7
9 13 6 13 -2 0 -10 -6 -16 -14z"/>
<path d="M3135 4840 c-3 -5 -1 -10 4 -10 6 0 11 5 11 10 0 6 -2 10 -4 10 -3 0
-8 -4 -11 -10z"/>
<path d="M6865 4740 c-3 -6 1 -7 9 -4 18 7 21 14 7 14 -6 0 -13 -4 -16 -10z"/>
<path d="M3066 4702 c-3 -5 1 -9 9 -9 8 0 15 4 15 9 0 4 -4 8 -9 8 -6 0 -12
-4 -15 -8z"/>
<path d="M6953 4605 c0 -8 4 -12 9 -9 5 3 6 10 3 15 -9 13 -12 11 -12 -6z"/>
<path d="M2696 3942 c-3 -5 1 -9 9 -9 8 0 12 4 9 9 -3 4 -7 8 -9 8 -2 0 -6 -4
-9 -8z"/>
<path d="M2553 3631 c0 -11 5 -18 9 -15 4 3 5 11 1 19 -7 21 -12 19 -10 -4z"/>
<path d="M2510 3560 c0 -5 5 -10 11 -10 5 0 7 5 4 10 -3 6 -8 10 -11 10 -2 0
-4 -4 -4 -10z"/>
<path d="M2266 3118 c3 -4 9 -8 15 -8 5 0 9 4 9 8 0 5 -7 9 -15 9 -8 0 -12 -4
-9 -9z"/>
<path d="M7746 2977 c3 -10 9 -15 12 -12 3 3 0 11 -7 18 -10 9 -11 8 -5 -6z"/>
<path d="M7795 2911 c-3 -5 -2 -12 3 -15 5 -3 9 1 9 9 0 17 -3 19 -12 6z"/>
<path d="M2096 2842 c-3 -4 4 -9 15 -9 23 -2 25 3 4 10 -8 4 -16 3 -19 -1z"/>
<path d="M7856 2827 c3 -10 9 -15 12 -12 3 3 0 11 -7 18 -10 9 -11 8 -5 -6z"/>
<path d="M2000 2716 c0 -2 7 -7 16 -10 8 -3 12 -2 9 4 -6 10 -25 14 -25 6z"/>
<path d="M1975 2680 c-3 -5 -1 -10 4 -10 6 0 11 5 11 10 0 6 -2 10 -4 10 -3 0
-8 -4 -11 -10z"/>
<path d="M7955 2680 c3 -5 8 -10 11 -10 2 0 4 5 4 10 0 6 -5 10 -11 10 -5 0
-7 -4 -4 -10z"/>
<path d="M7976 2662 c-2 -4 -1 -14 4 -22 7 -11 9 -9 7 8 -1 24 -3 26 -11 14z"/>
<path d="M1946 2642 c-3 -5 1 -9 9 -9 8 0 15 4 15 9 0 4 -4 8 -9 8 -6 0 -12
-4 -15 -8z"/>
<path d="M1910 2601 c0 -6 4 -13 10 -16 6 -3 7 1 4 9 -7 18 -14 21 -14 7z"/>
<path d="M1878 2576 c-10 -7 -18 -17 -18 -21 0 -5 8 -1 18 8 10 10 22 14 27
10 4 -5 5 -2 1 5 -9 14 -7 15 -28 -2z"/>
<path d="M8055 2580 c3 -5 8 -10 11 -10 2 0 4 5 4 10 0 6 -5 10 -11 10 -5 0
-7 -4 -4 -10z"/>
<path d="M6540 2556 c0 -2 7 -7 16 -10 8 -3 12 -2 9 4 -6 10 -25 14 -25 6z"/>
<path d="M8113 2535 c0 -8 4 -12 9 -9 5 3 6 10 3 15 -9 13 -12 11 -12 -6z"/>
<path d="M1795 2529 c-4 -6 -5 -12 -2 -15 2 -3 7 2 10 11 7 17 1 20 -8 4z"/>
<path d="M2926 2518 c3 -5 10 -6 15 -3 13 9 11 12 -6 12 -8 0 -12 -4 -9 -9z"/>
<path d="M6480 2511 c0 -6 4 -13 10 -16 6 -3 7 1 4 9 -7 18 -14 21 -14 7z"/>
<path d="M8157 2509 c7 -7 15 -10 18 -7 3 3 -2 9 -12 12 -14 6 -15 5 -6 -5z"/>
<path d="M1704 2488 c3 -15 26 -23 26 -8 0 6 -4 9 -9 6 -5 -4 -12 -1 -14 4 -3
6 -4 5 -3 -2z"/>
<path d="M8210 2490 c-9 -6 -10 -10 -3 -10 6 0 15 5 18 10 8 12 4 12 -15 0z"/>
<path d="M3051 2474 c0 -11 3 -14 6 -6 3 7 2 16 -1 19 -3 4 -6 -2 -5 -13z"/>
<path d="M6430 2478 c0 -4 9 -7 20 -5 29 5 33 13 5 13 -14 0 -25 -4 -25 -8z"/>
<path d="M3170 2457 c0 -2 6 -10 14 -16 11 -9 16 -9 22 1 4 7 4 10 -1 6 -4 -4
-14 -3 -22 3 -7 6 -13 9 -13 6z"/>
<path d="M6329 2443 c-13 -16 -12 -17 4 -4 16 13 21 21 13 21 -2 0 -10 -8 -17
-17z"/>
<path d="M8439 2458 c-5 -18 -6 -38 -1 -34 7 8 12 36 6 36 -2 0 -4 -1 -5 -2z"/>
<path d="M5974 2436 c1 -8 5 -18 8 -22 4 -3 5 1 4 10 -1 8 -5 18 -8 22 -4 3
-5 -1 -4 -10z"/>
<path d="M6030 2441 c0 -6 4 -13 10 -16 6 -3 7 1 4 9 -7 18 -14 21 -14 7z"/>
<path d="M6115 2431 c-3 -5 -2 -12 3 -15 5 -3 9 1 9 9 0 17 -3 19 -12 6z"/>
<path d="M1473 1885 c0 -8 4 -12 9 -9 5 3 6 10 3 15 -9 13 -12 11 -12 -6z"/>
<path d="M1690 1896 c0 -3 9 -10 20 -16 11 -6 20 -8 20 -6 0 3 -9 10 -20 16
-11 6 -20 8 -20 6z"/>
<path d="M1809 1883 c-13 -16 -12 -17 4 -4 9 7 17 15 17 17 0 8 -8 3 -21 -13z"/>
<path d="M1857 1889 c7 -7 15 -10 18 -7 3 3 -2 9 -12 12 -14 6 -15 5 -6 -5z"/>
<path d="M1955 1890 c3 -5 8 -10 11 -10 2 0 4 5 4 10 0 6 -5 10 -11 10 -5 0
-7 -4 -4 -10z"/>
<path d="M1155 1880 c-3 -5 -1 -10 4 -10 6 0 11 5 11 10 0 6 -2 10 -4 10 -3 0
-8 -4 -11 -10z"/>
<path d="M1315 1880 c3 -5 8 -10 11 -10 2 0 4 5 4 10 0 6 -5 10 -11 10 -5 0
-7 -4 -4 -10z"/>
<path d="M1370 1879 c0 -5 5 -7 10 -4 6 3 10 8 10 11 0 2 -4 4 -10 4 -5 0 -10
-5 -10 -11z"/>
<path d="M2006 1878 c3 -5 10 -6 15 -3 13 9 11 12 -6 12 -8 0 -12 -4 -9 -9z"/>
<path d="M2250 1879 c0 -5 5 -7 10 -4 6 3 10 8 10 11 0 2 -4 4 -10 4 -5 0 -10
-5 -10 -11z"/>
<path d="M2395 1880 c-3 -5 -1 -10 4 -10 6 0 11 5 11 10 0 6 -2 10 -4 10 -3 0
-8 -4 -11 -10z"/>
<path d="M1113 1865 c0 -8 4 -12 9 -9 5 3 6 10 3 15 -9 13 -12 11 -12 -6z"/>
<path d="M893 1845 c0 -8 4 -12 9 -9 5 3 6 10 3 15 -9 13 -12 11 -12 -6z"/>
<path d="M2761 1853 c-1 -17 16 -25 25 -12 4 7 3 9 -4 5 -5 -3 -13 0 -15 6 -4
9 -6 10 -6 1z"/>
<path d="M2890 1841 c0 -6 4 -13 10 -16 6 -3 7 1 4 9 -7 18 -14 21 -14 7z"/>
<path d="M2960 1840 c-9 -6 -10 -10 -3 -10 6 0 15 5 18 10 8 12 4 12 -15 0z"/>
<path d="M773 1825 c0 -8 4 -12 9 -9 5 3 6 10 3 15 -9 13 -12 11 -12 -6z"/>
<path d="M3156 1822 c-3 -5 1 -9 9 -9 8 0 12 4 9 9 -3 4 -7 8 -9 8 -2 0 -6 -4
-9 -8z"/>
<path d="M3256 1807 c3 -10 9 -15 12 -12 3 3 0 11 -7 18 -10 9 -11 8 -5 -6z"/>
<path d="M590 1805 c0 -7 30 -13 34 -7 3 4 -4 9 -15 9 -10 1 -19 0 -19 -2z"/>
<path d="M506 1778 c3 -4 9 -8 15 -8 5 0 9 4 9 8 0 5 -7 9 -15 9 -8 0 -12 -4
-9 -9z"/>
<path d="M416 1767 c3 -10 9 -15 12 -12 3 3 0 11 -7 18 -10 9 -11 8 -5 -6z"/>
<path d="M193 1705 c0 -8 4 -12 9 -9 5 3 6 10 3 15 -9 13 -12 11 -12 -6z"/>
<path d="M4095 1700 c3 -5 8 -10 11 -10 2 0 4 5 4 10 0 6 -5 10 -11 10 -5 0
-7 -4 -4 -10z"/>
<path d="M4235 1691 c-3 -5 -2 -12 3 -15 5 -3 9 1 9 9 0 17 -3 19 -12 6z"/>
<path d="M4274 1682 c4 -3 14 -7 22 -8 9 -1 13 0 10 4 -4 3 -14 7 -22 8 -9 1
-13 0 -10 -4z"/>
<path d="M4570 1641 c0 -6 4 -12 8 -15 5 -3 9 1 9 9 0 8 -4 15 -9 15 -4 0 -8
-4 -8 -9z"/>
<path d="M5096 1558 c3 -5 10 -6 15 -3 13 9 11 12 -6 12 -8 0 -12 -4 -9 -9z"/>
<path d="M5214 1556 c1 -8 5 -18 8 -22 4 -3 5 1 4 10 -1 8 -5 18 -8 22 -4 3
-5 -1 -4 -10z"/>
<path d="M9330 1555 c0 -8 2 -15 4 -15 2 0 6 7 10 15 3 8 1 15 -4 15 -6 0 -10
-7 -10 -15z"/>
<path d="M5275 1541 c-3 -5 -2 -12 3 -15 5 -3 9 1 9 9 0 17 -3 19 -12 6z"/>
<path d="M5570 1500 c0 -5 5 -10 11 -10 5 0 7 5 4 10 -3 6 -8 10 -11 10 -2 0
-4 -4 -4 -10z"/>
<path d="M9236 1483 c-6 -14 -5 -15 5 -6 7 7 10 15 7 18 -3 3 -9 -2 -12 -12z"/>
<path d="M5670 1479 c0 -5 5 -7 10 -4 6 3 10 8 10 11 0 2 -4 4 -10 4 -5 0 -10
-5 -10 -11z"/>
<path d="M9256 1473 c-6 -14 -5 -15 5 -6 7 7 10 15 7 18 -3 3 -9 -2 -12 -12z"/>
<path d="M5795 1471 c-3 -5 -2 -12 3 -15 5 -3 9 1 9 9 0 17 -3 19 -12 6z"/>
<path d="M6150 1421 c0 -6 4 -13 10 -16 6 -3 7 1 4 9 -7 18 -14 21 -14 7z"/>
<path d="M6415 1380 c-3 -5 -1 -10 4 -10 6 0 11 5 11 10 0 6 -2 10 -4 10 -3 0
-8 -4 -11 -10z"/>
<path d="M6450 1380 c0 -5 5 -10 11 -10 5 0 7 5 4 10 -3 6 -8 10 -11 10 -2 0
-4 -4 -4 -10z"/>
<path d="M6513 1375 c0 -8 4 -12 9 -9 5 3 6 10 3 15 -9 13 -12 11 -12 -6z"/>
<path d="M6575 1360 c3 -5 8 -10 11 -10 2 0 4 5 4 10 0 6 -5 10 -11 10 -5 0
-7 -4 -4 -10z"/>
<path d="M6636 1353 c-6 -14 -5 -15 5 -6 7 7 10 15 7 18 -3 3 -9 -2 -12 -12z"/>
<path d="M6815 1341 c-3 -5 -2 -12 3 -15 5 -3 9 1 9 9 0 17 -3 19 -12 6z"/>
<path d="M6955 1330 c-4 -6 -12 -7 -18 -4 -7 4 -8 3 -4 -1 13 -15 34 -14 34 1
0 17 -4 18 -12 4z"/>
<path d="M8856 1322 c-3 -5 1 -9 9 -9 8 0 12 4 9 9 -3 4 -7 8 -9 8 -2 0 -6 -4
-9 -8z"/>
<path d="M7075 1311 c-3 -5 -2 -12 3 -15 5 -3 9 1 9 9 0 17 -3 19 -12 6z"/>
<path d="M8749 1303 c-13 -16 -12 -17 4 -4 16 13 21 21 13 21 -2 0 -10 -8 -17
-17z"/>
<path d="M8795 1310 c-3 -5 -1 -10 4 -10 6 0 11 5 11 10 0 6 -2 10 -4 10 -3 0
-8 -4 -11 -10z"/>
<path d="M7170 1300 c0 -5 5 -10 11 -10 5 0 7 5 4 10 -3 6 -8 10 -11 10 -2 0
-4 -4 -4 -10z"/>
<path d="M7316 1287 c3 -10 9 -15 12 -12 3 3 0 11 -7 18 -10 9 -11 8 -5 -6z"/>
<path d="M7350 1278 c0 -4 4 -8 9 -8 6 0 12 4 15 8 3 5 -1 9 -9 9 -8 0 -15 -4
-15 -9z"/>
<path d="M7515 1280 c-4 -6 -1 -9 7 -8 7 2 12 -3 10 -10 -1 -8 2 -11 8 -7 8 5
7 11 -1 21 -14 17 -16 17 -24 4z"/>
<path d="M8615 1280 c-3 -5 -1 -10 4 -10 6 0 11 5 11 10 0 6 -2 10 -4 10 -3 0
-8 -4 -11 -10z"/>
<path d="M8515 1271 c-3 -5 -2 -12 3 -15 5 -3 9 1 9 9 0 17 -3 19 -12 6z"/>
<path d="M7610 1259 c0 -5 5 -7 10 -4 6 3 10 8 10 11 0 2 -4 4 -10 4 -5 0 -10
-5 -10 -11z"/>
<path d="M7740 1260 c-12 -7 -10 -9 7 -7 12 0 19 5 17 9 -6 10 -6 10 -24 -2z"/>
<path d="M7859 1268 c-5 -18 -6 -38 -1 -34 7 8 12 36 6 36 -2 0 -4 -1 -5 -2z"/>
<path d="M8236 1262 c-3 -5 1 -9 9 -9 8 0 12 4 9 9 -3 4 -7 8 -9 8 -2 0 -6 -4
-9 -8z"/>
<path d="M8306 1262 c-3 -4 4 -9 15 -9 23 -2 25 3 4 10 -8 4 -16 3 -19 -1z"/>
<path d="M8390 1260 c0 -5 5 -10 11 -10 5 0 7 5 4 10 -3 6 -8 10 -11 10 -2 0
-4 -4 -4 -10z"/>
<path d="M7910 1250 c0 -5 5 -10 11 -10 5 0 7 5 4 10 -3 6 -8 10 -11 10 -2 0
-4 -4 -4 -10z"/>
<path d="M7790 1246 c0 -2 7 -7 16 -10 8 -3 12 -2 9 4 -6 10 -25 14 -25 6z"/>
<path d="M7990 1239 c0 -5 5 -7 10 -4 6 3 10 8 10 11 0 2 -4 4 -10 4 -5 0 -10
-5 -10 -11z"/>
</g>
</svg>
